<?xml version="1.0" standalone="no"?><svg xmlns:xlink="http://www.w3.org/1999/xlink" xmlns="http://www.w3.org/2000/svg" viewBox="0 0 1000 529.4093468699905" preserveAspectRatio="xMaxYMax slice"><g transform="scale(0.822064203214271)"><rect x="0" y="0" width="1288" height="644" fill="#ffffff"/><g transform="translate(7.16,78.71) scale(2.862) rotate(0)"><path fill-rule="evenodd" clip-rule="evenodd" d="M10 20C15.5228 20 20 15.5228 20 10C20 4.47715 15.5228 0 10 0C4.47715 0 0 4.47715 0 10C0 15.5228 4.47715 20 10 20ZM10 17C13.866 17 17 13.866 17 10C17 6.13401 13.866 3 10 3C6.13401 3 3 6.13401 3 10C3 13.866 6.13401 17 10 17Z" fill="#bcc7f6"/></g><g transform="translate(221.82,78.71) scale(2.862) rotate(0)"><path fill-rule="evenodd" clip-rule="evenodd" d="M10 20C15.5228 20 20 15.5228 20 10C20 4.47715 15.5228 0 10 0C4.47715 0 0 4.47715 0 10C0 15.5228 4.47715 20 10 20ZM10 17C13.866 17 17 13.866 17 10C17 6.13401 13.866 3 10 3C6.13401 3 3 6.13401 3 10C3 13.866 6.13401 17 10 17Z" fill="#2348e2"/></g><rect x="150.26666666666668" y="150.26666666666668" width="57.24444444444445" height="57.24444444444445" fill="#ffffff"/><polygon points="150.27,150.27 178.89000000000001,150.27 178.89000000000001,178.89000000000001" fill="#ffadc0"/><rect x="293.3777777777778" y="150.26666666666668" width="57.24444444444445" height="57.24444444444445" fill="#ffffff"/><rect x="364.93333333333334" y="150.26666666666668" width="57.24444444444445" height="57.24444444444445" fill="#ffffff"/><g transform="translate(393.56,150.27) scale(1.431) rotate(0)"><path d="M10 0L20 10L10 20L0 10L10 0Z" fill="#ff82a0"/></g><g transform="translate(393.56,178.89) scale(1.431) rotate(0)"><path d="M10 0L20 10L10 20L0 10L10 0Z" fill="#ff5d83"/></g><polygon points="508.04,150.27 565.28,150.27 508.04,207.51000000000002" fill="#bdc8f6"/><polygon points="1008.93,150.27 1066.1699999999998,150.27 1066.1699999999998,207.51000000000002" fill="#ffc8d5"/><rect x="1223.6000000000001" y="150.26666666666668" width="57.24444444444445" height="57.24444444444445" fill="#ffffff"/><g transform="translate(1252.22,150.27) scale(1.431) rotate(0)"><path d="M10 0L20 10L10 20L0 10L10 0Z" fill="#f3f5fe"/></g><polygon points="1252.22,178.89 1280.84,178.89 1280.84,207.51" fill="#fcfdff"/><g transform="translate(150.27,221.82) scale(2.862) rotate(0)"><path d="M10 0L20 10L10 20L0 10L10 0Z" fill="#c7d0f8"/></g><rect x="436.48888888888894" y="221.82222222222225" width="57.24444444444445" height="57.24444444444445" fill="#ffffff"/><polygon points="493.73,221.82 493.73,250.44 465.11,250.44" fill="#ff9ab2"/><rect x="508.0444444444445" y="221.82222222222225" width="57.24444444444445" height="57.24444444444445" fill="#ffffff"/><g transform="translate(536.67,221.82) scale(1.431) rotate(0)"><path fill-rule="evenodd" clip-rule="evenodd" d="M10 20C15.5228 20 20 15.5228 20 10C20 4.47715 15.5228 0 10 0C4.47715 0 0 4.47715 0 10C0 15.5228 4.47715 20 10 20ZM10 17C13.866 17 17 13.866 17 10C17 6.13401 13.866 3 10 3C6.13401 3 3 6.13401 3 10C3 13.866 6.13401 17 10 17Z" fill="#4363e7"/></g><g transform="translate(508.04,250.44) scale(1.431) rotate(0)"><path fill-rule="evenodd" clip-rule="evenodd" d="M10 20C15.5228 20 20 15.5228 20 10C20 4.47715 15.5228 0 10 0C4.47715 0 0 4.47715 0 10C0 15.5228 4.47715 20 10 20ZM10 17C13.866 17 17 13.866 17 10C17 6.13401 13.866 3 10 3C6.13401 3 3 6.13401 3 10C3 13.866 6.13401 17 10 17Z" fill="#ff3d6b"/></g><polygon points="565.29,250.44 565.29,279.06 536.67,279.06" fill="#fff4f6"/><rect x="579.6" y="221.82222222222225" width="57.24444444444445" height="57.24444444444445" fill="#ffffff"/><polygon points="722.71,221.82 779.95,221.82 722.71,279.06" fill="#f2f5fd"/><rect x="937.3777777777779" y="221.82222222222225" width="57.24444444444445" height="57.24444444444445" fill="#ffffff"/><g transform="translate(966,250.44) scale(1.431) rotate(0)"><path d="M10 0L20 10L10 20L0 10L10 0Z" fill="#5975e9"/></g><g transform="translate(1223.6,221.82) scale(2.862) rotate(0)"><path d="M10 0L20 10L10 20L0 10L10 0Z" fill="#2f52e4"/></g><rect x="7.155555555555556" y="293.3777777777778" width="57.24444444444445" height="57.24444444444445" fill="#ffffff"/><polygon points="7.16,322 35.78,322 7.16,350.62" fill="#ff84a2"/><g transform="translate(35.78,322) scale(1.431) rotate(0)"><path fill-rule="evenodd" clip-rule="evenodd" d="M10 20C15.5228 20 20 15.5228 20 10C20 4.47715 15.5228 0 10 0C4.47715 0 0 4.47715 0 10C0 15.5228 4.47715 20 10 20ZM10 17C13.866 17 17 13.866 17 10C17 6.13401 13.866 3 10 3C6.13401 3 3 6.13401 3 10C3 13.866 6.13401 17 10 17Z" fill="#8096ef"/></g><g transform="translate(579.6,293.38) scale(2.862) rotate(0)"><path fill-rule="evenodd" clip-rule="evenodd" d="M10 20C15.5228 20 20 15.5228 20 10C20 4.47715 15.5228 0 10 0C4.47715 0 0 4.47715 0 10C0 15.5228 4.47715 20 10 20ZM10 17C13.866 17 17 13.866 17 10C17 6.13401 13.866 3 10 3C6.13401 3 3 6.13401 3 10C3 13.866 6.13401 17 10 17Z" fill="#ffeaef"/></g><g transform="translate(722.71,293.38) scale(2.862) rotate(0)"><path d="M10 0L20 10L10 20L0 10L10 0Z" fill="#ffd2dd"/></g><g transform="translate(794.27,293.38) scale(2.862) rotate(0)"><path d="M10 0L20 10L10 20L0 10L10 0Z" fill="#ffeef2"/></g><rect x="1152.0444444444445" y="293.3777777777778" width="57.24444444444445" height="57.24444444444445" fill="#ffffff"/><g transform="translate(1152.04,293.38) scale(1.431) rotate(0)"><path fill-rule="evenodd" clip-rule="evenodd" d="M10 20C15.5228 20 20 15.5228 20 10C20 4.47715 15.5228 0 10 0C4.47715 0 0 4.47715 0 10C0 15.5228 4.47715 20 10 20ZM10 17C13.866 17 17 13.866 17 10C17 6.13401 13.866 3 10 3C6.13401 3 3 6.13401 3 10C3 13.866 6.13401 17 10 17Z" fill="#b8c4f6"/></g><g transform="translate(1180.67,293.38) scale(1.431) rotate(0)"><path d="M10 0L20 10L10 20L0 10L10 0Z" fill="#ff426f"/></g><polygon points="1180.67,322 1209.29,322 1209.29,350.62" fill="#5975e9"/><polygon points="1280.84,293.38 1280.84,350.62 1223.6,350.62" fill="#ffeff3"/><rect x="7.155555555555556" y="364.93333333333334" width="57.24444444444445" height="57.24444444444445" fill="#ffffff"/><polygon points="7.16,364.93 35.78,364.93 35.78,393.55" fill="#4060e6"/><polygon points="35.78,393.56 64.4,393.56 64.4,422.18" fill="#f5f7fe"/><g transform="translate(78.71,364.93) scale(2.862) rotate(0)"><path d="M10 0L20 10L10 20L0 10L10 0Z" fill="#ffebef"/></g><rect x="364.93333333333334" y="364.93333333333334" width="57.24444444444445" height="57.24444444444445" fill="#ffffff"/><polygon points="393.56,364.93 422.18,364.93 393.56,393.55" fill="#2147e2"/><g transform="translate(364.93,393.56) scale(1.431) rotate(0)"><path fill-rule="evenodd" clip-rule="evenodd" d="M10 20C15.5228 20 20 15.5228 20 10C20 4.47715 15.5228 0 10 0C4.47715 0 0 4.47715 0 10C0 15.5228 4.47715 20 10 20ZM10 17C13.866 17 17 13.866 17 10C17 6.13401 13.866 3 10 3C6.13401 3 3 6.13401 3 10C3 13.866 6.13401 17 10 17Z" fill="#3c5de6"/></g><polygon points="422.18,393.56 422.18,422.18 393.56,422.18" fill="#768ded"/><g transform="translate(508.04,364.93) scale(2.862) rotate(0)"><path fill-rule="evenodd" clip-rule="evenodd" d="M10 20C15.5228 20 20 15.5228 20 10C20 4.47715 15.5228 0 10 0C4.47715 0 0 4.47715 0 10C0 15.5228 4.47715 20 10 20ZM10 17C13.866 17 17 13.866 17 10C17 6.13401 13.866 3 10 3C6.13401 3 3 6.13401 3 10C3 13.866 6.13401 17 10 17Z" fill="#ffd6e0"/></g><rect x="579.6" y="364.93333333333334" width="57.24444444444445" height="57.24444444444445" fill="#ffffff"/><polygon points="608.22,364.93 608.22,393.55 579.6,393.55" fill="#ff85a2"/><g transform="translate(579.6,393.56) scale(1.431) rotate(0)"><path fill-rule="evenodd" clip-rule="evenodd" d="M10 20C15.5228 20 20 15.5228 20 10C20 4.47715 15.5228 0 10 0C4.47715 0 0 4.47715 0 10C0 15.5228 4.47715 20 10 20ZM10 17C13.866 17 17 13.866 17 10C17 6.13401 13.866 3 10 3C6.13401 3 3 6.13401 3 10C3 13.866 6.13401 17 10 17Z" fill="#c0cbf7"/></g><polygon points="608.22,393.56 636.84,393.56 608.22,422.18" fill="#8c9ff0"/><g transform="translate(651.16,364.93) scale(2.862) rotate(0)"><path d="M10 0L20 10L10 20L0 10L10 0Z" fill="#ff7092"/></g><rect x="794.2666666666667" y="364.93333333333334" width="57.24444444444445" height="57.24444444444445" fill="#ffffff"/><g transform="translate(794.27,364.93) scale(1.431) rotate(0)"><path d="M10 0L20 10L10 20L0 10L10 0Z" fill="#b8c4f6"/></g><polygon points="822.89,364.93 851.51,393.55 822.89,393.55" fill="#ffe8ee"/><g transform="translate(794.27,393.56) scale(1.431) rotate(0)"><path d="M10 0L20 10L10 20L0 10L10 0Z" fill="#516ee8"/></g><polygon points="923.0600000000001,364.93 923.0600000000001,422.17 865.82,422.17" fill="#ff8aa6"/><rect x="937.3777777777779" y="364.93333333333334" width="57.24444444444445" height="57.24444444444445" fill="#ffffff"/><g transform="translate(937.38,393.56) scale(1.431) rotate(0)"><path d="M10 0L20 10L10 20L0 10L10 0Z" fill="#ff3867"/></g><rect x="1008.9333333333334" y="364.93333333333334" width="57.24444444444445" height="57.24444444444445" fill="#ffffff"/><g transform="translate(1008.93,364.93) scale(1.431) rotate(0)"><path d="M10 0L20 10L10 20L0 10L10 0Z" fill="#ff7193"/></g><polygon points="1008.93,393.56 1037.55,393.56 1037.55,422.18" fill="#1a40e1"/><g transform="translate(1037.56,393.56) scale(1.431) rotate(0)"><path fill-rule="evenodd" clip-rule="evenodd" d="M10 20C15.5228 20 20 15.5228 20 10C20 4.47715 15.5228 0 10 0C4.47715 0 0 4.47715 0 10C0 15.5228 4.47715 20 10 20ZM10 17C13.866 17 17 13.866 17 10C17 6.13401 13.866 3 10 3C6.13401 3 3 6.13401 3 10C3 13.866 6.13401 17 10 17Z" fill="#ffe9ee"/></g><rect x="1080.4888888888888" y="364.93333333333334" width="57.24444444444445" height="57.24444444444445" fill="#ffffff"/><g transform="translate(1080.49,364.93) scale(1.431) rotate(0)"><path d="M10 0L20 10L10 20L0 10L10 0Z" fill="#ff7193"/></g><g transform="translate(1109.11,364.93) scale(1.431) rotate(0)"><path fill-rule="evenodd" clip-rule="evenodd" d="M10 20C15.5228 20 20 15.5228 20 10C20 4.47715 15.5228 0 10 0C4.47715 0 0 4.47715 0 10C0 15.5228 4.47715 20 10 20ZM10 17C13.866 17 17 13.866 17 10C17 6.13401 13.866 3 10 3C6.13401 3 3 6.13401 3 10C3 13.866 6.13401 17 10 17Z" fill="#5e79ea"/></g><g transform="translate(1080.49,393.56) scale(1.431) rotate(0)"><path fill-rule="evenodd" clip-rule="evenodd" d="M10 20C15.5228 20 20 15.5228 20 10C20 4.47715 15.5228 0 10 0C4.47715 0 0 4.47715 0 10C0 15.5228 4.47715 20 10 20ZM10 17C13.866 17 17 13.866 17 10C17 6.13401 13.866 3 10 3C6.13401 3 3 6.13401 3 10C3 13.866 6.13401 17 10 17Z" fill="#ff9eb5"/></g><polygon points="1137.7299999999998,393.56 1137.7299999999998,422.18 1109.11,422.18" fill="#7b91ee"/><g transform="translate(1152.04,364.93) scale(2.862) rotate(0)"><path fill-rule="evenodd" clip-rule="evenodd" d="M10 20C15.5228 20 20 15.5228 20 10C20 4.47715 15.5228 0 10 0C4.47715 0 0 4.47715 0 10C0 15.5228 4.47715 20 10 20ZM10 17C13.866 17 17 13.866 17 10C17 6.13401 13.866 3 10 3C6.13401 3 3 6.13401 3 10C3 13.866 6.13401 17 10 17Z" fill="#ff95ae"/></g><polygon points="1223.6,364.93 1280.84,364.93 1223.6,422.17" fill="#8da1f0"/><g transform="translate(78.71,436.49) scale(2.862) rotate(0)"><path fill-rule="evenodd" clip-rule="evenodd" d="M10 20C15.5228 20 20 15.5228 20 10C20 4.47715 15.5228 0 10 0C4.47715 0 0 4.47715 0 10C0 15.5228 4.47715 20 10 20ZM10 17C13.866 17 17 13.866 17 10C17 6.13401 13.866 3 10 3C6.13401 3 3 6.13401 3 10C3 13.866 6.13401 17 10 17Z" fill="#f6f8fe"/></g><g transform="translate(150.27,436.49) scale(2.862) rotate(0)"><path fill-rule="evenodd" clip-rule="evenodd" d="M10 20C15.5228 20 20 15.5228 20 10C20 4.47715 15.5228 0 10 0C4.47715 0 0 4.47715 0 10C0 15.5228 4.47715 20 10 20ZM10 17C13.866 17 17 13.866 17 10C17 6.13401 13.866 3 10 3C6.13401 3 3 6.13401 3 10C3 13.866 6.13401 17 10 17Z" fill="#ff809e"/></g><rect x="221.82222222222225" y="436.48888888888894" width="57.24444444444445" height="57.24444444444445" fill="#ffffff"/><g transform="translate(221.82,436.49) scale(1.431) rotate(0)"><path d="M10 0L20 10L10 20L0 10L10 0Z" fill="#ffb4c6"/></g><g transform="translate(250.44,436.49) scale(1.431) rotate(0)"><path d="M10 0L20 10L10 20L0 10L10 0Z" fill="#ffd6e0"/></g><g transform="translate(221.82,465.11) scale(1.431) rotate(0)"><path d="M10 0L20 10L10 20L0 10L10 0Z" fill="#3356e5"/></g><g transform="translate(250.44,465.11) scale(1.431) rotate(0)"><path d="M10 0L20 10L10 20L0 10L10 0Z" fill="#ffe5eb"/></g><g transform="translate(293.38,436.49) scale(2.862) rotate(0)"><path fill-rule="evenodd" clip-rule="evenodd" d="M10 20C15.5228 20 20 15.5228 20 10C20 4.47715 15.5228 0 10 0C4.47715 0 0 4.47715 0 10C0 15.5228 4.47715 20 10 20ZM10 17C13.866 17 17 13.866 17 10C17 6.13401 13.866 3 10 3C6.13401 3 3 6.13401 3 10C3 13.866 6.13401 17 10 17Z" fill="#ff94ad"/></g><g transform="translate(436.49,436.49) scale(2.862) rotate(0)"><path d="M10 0L20 10L10 20L0 10L10 0Z" fill="#ffacc0"/></g><rect x="508.0444444444445" y="436.48888888888894" width="57.24444444444445" height="57.24444444444445" fill="#ffffff"/><g transform="translate(508.04,436.49) scale(1.431) rotate(0)"><path fill-rule="evenodd" clip-rule="evenodd" d="M10 20C15.5228 20 20 15.5228 20 10C20 4.47715 15.5228 0 10 0C4.47715 0 0 4.47715 0 10C0 15.5228 4.47715 20 10 20ZM10 17C13.866 17 17 13.866 17 10C17 6.13401 13.866 3 10 3C6.13401 3 3 6.13401 3 10C3 13.866 6.13401 17 10 17Z" fill="#b3c0f5"/></g><g transform="translate(536.67,436.49) scale(1.431) rotate(0)"><path d="M10 0L20 10L10 20L0 10L10 0Z" fill="#ffabbf"/></g><g transform="translate(508.04,465.11) scale(1.431) rotate(0)"><path fill-rule="evenodd" clip-rule="evenodd" d="M10 20C15.5228 20 20 15.5228 20 10C20 4.47715 15.5228 0 10 0C4.47715 0 0 4.47715 0 10C0 15.5228 4.47715 20 10 20ZM10 17C13.866 17 17 13.866 17 10C17 6.13401 13.866 3 10 3C6.13401 3 3 6.13401 3 10C3 13.866 6.13401 17 10 17Z" fill="#c9d2f8"/></g><polygon points="565.29,465.11 565.29,493.73 536.67,493.73" fill="#ffcfda"/><polygon points="579.6,436.49 636.84,436.49 579.6,493.73" fill="#2248e2"/><polygon points="708.4,436.49 708.4,493.73 651.16,493.73" fill="#ffe0e7"/><g transform="translate(722.71,436.49) scale(2.862) rotate(0)"><path fill-rule="evenodd" clip-rule="evenodd" d="M10 20C15.5228 20 20 15.5228 20 10C20 4.47715 15.5228 0 10 0C4.47715 0 0 4.47715 0 10C0 15.5228 4.47715 20 10 20ZM10 17C13.866 17 17 13.866 17 10C17 6.13401 13.866 3 10 3C6.13401 3 3 6.13401 3 10C3 13.866 6.13401 17 10 17Z" fill="#ff5980"/></g><polygon points="851.51,436.49 851.51,493.73 794.27,493.73" fill="#4a68e7"/><rect x="865.8222222222223" y="436.48888888888894" width="57.24444444444445" height="57.24444444444445" fill="#ffffff"/><g transform="translate(865.82,436.49) scale(1.431) rotate(0)"><path d="M10 0L20 10L10 20L0 10L10 0Z" fill="#788fee"/></g><polygon points="923.0600000000001,436.49 923.0600000000001,465.11 894.44,465.11" fill="#ffd6e0"/><polygon points="894.44,465.11 894.44,493.73 865.82,493.73" fill="#ff6287"/><g transform="translate(894.44,465.11) scale(1.431) rotate(0)"><path fill-rule="evenodd" clip-rule="evenodd" d="M10 20C15.5228 20 20 15.5228 20 10C20 4.47715 15.5228 0 10 0C4.47715 0 0 4.47715 0 10C0 15.5228 4.47715 20 10 20ZM10 17C13.866 17 17 13.866 17 10C17 6.13401 13.866 3 10 3C6.13401 3 3 6.13401 3 10C3 13.866 6.13401 17 10 17Z" fill="#fdfdff"/></g><rect x="937.3777777777779" y="436.48888888888894" width="57.24444444444445" height="57.24444444444445" fill="#ffffff"/><polygon points="966,436.49 966,465.11 937.38,465.11" fill="#748ced"/><g transform="translate(966,436.49) scale(1.431) rotate(0)"><path d="M10 0L20 10L10 20L0 10L10 0Z" fill="#2046e2"/></g><polygon points="937.38,465.11 966,465.11 966,493.73" fill="#264be3"/><g transform="translate(966,465.11) scale(1.431) rotate(0)"><path fill-rule="evenodd" clip-rule="evenodd" d="M10 20C15.5228 20 20 15.5228 20 10C20 4.47715 15.5228 0 10 0C4.47715 0 0 4.47715 0 10C0 15.5228 4.47715 20 10 20ZM10 17C13.866 17 17 13.866 17 10C17 6.13401 13.866 3 10 3C6.13401 3 3 6.13401 3 10C3 13.866 6.13401 17 10 17Z" fill="#ffdce5"/></g><g transform="translate(1008.93,436.49) scale(2.862) rotate(0)"><path d="M10 0L20 10L10 20L0 10L10 0Z" fill="#c9d2f8"/></g><rect x="1080.4888888888888" y="436.48888888888894" width="57.24444444444445" height="57.24444444444445" fill="#ffffff"/><g transform="translate(1080.49,436.49) scale(1.431) rotate(0)"><path fill-rule="evenodd" clip-rule="evenodd" d="M10 20C15.5228 20 20 15.5228 20 10C20 4.47715 15.5228 0 10 0C4.47715 0 0 4.47715 0 10C0 15.5228 4.47715 20 10 20ZM10 17C13.866 17 17 13.866 17 10C17 6.13401 13.866 3 10 3C6.13401 3 3 6.13401 3 10C3 13.866 6.13401 17 10 17Z" fill="#8a9ef0"/></g><g transform="translate(1109.11,436.49) scale(1.431) rotate(0)"><path fill-rule="evenodd" clip-rule="evenodd" d="M10 20C15.5228 20 20 15.5228 20 10C20 4.47715 15.5228 0 10 0C4.47715 0 0 4.47715 0 10C0 15.5228 4.47715 20 10 20ZM10 17C13.866 17 17 13.866 17 10C17 6.13401 13.866 3 10 3C6.13401 3 3 6.13401 3 10C3 13.866 6.13401 17 10 17Z" fill="#4d6be8"/></g><g transform="translate(1080.49,465.11) scale(1.431) rotate(0)"><path fill-rule="evenodd" clip-rule="evenodd" d="M10 20C15.5228 20 20 15.5228 20 10C20 4.47715 15.5228 0 10 0C4.47715 0 0 4.47715 0 10C0 15.5228 4.47715 20 10 20ZM10 17C13.866 17 17 13.866 17 10C17 6.13401 13.866 3 10 3C6.13401 3 3 6.13401 3 10C3 13.866 6.13401 17 10 17Z" fill="#97a8f1"/></g><g transform="translate(1109.11,465.11) scale(1.431) rotate(0)"><path fill-rule="evenodd" clip-rule="evenodd" d="M10 20C15.5228 20 20 15.5228 20 10C20 4.47715 15.5228 0 10 0C4.47715 0 0 4.47715 0 10C0 15.5228 4.47715 20 10 20ZM10 17C13.866 17 17 13.866 17 10C17 6.13401 13.866 3 10 3C6.13401 3 3 6.13401 3 10C3 13.866 6.13401 17 10 17Z" fill="#ff7898"/></g><g transform="translate(1152.04,436.49) scale(2.862) rotate(0)"><path fill-rule="evenodd" clip-rule="evenodd" d="M10 20C15.5228 20 20 15.5228 20 10C20 4.47715 15.5228 0 10 0C4.47715 0 0 4.47715 0 10C0 15.5228 4.47715 20 10 20ZM10 17C13.866 17 17 13.866 17 10C17 6.13401 13.866 3 10 3C6.13401 3 3 6.13401 3 10C3 13.866 6.13401 17 10 17Z" fill="#7189ed"/></g><rect x="1223.6000000000001" y="436.48888888888894" width="57.24444444444445" height="57.24444444444445" fill="#ffffff"/><polygon points="1252.2199999999998,436.49 1252.2199999999998,465.11 1223.6,465.11" fill="#ff436f"/><polygon points="1252.22,436.49 1280.84,436.49 1252.22,465.11" fill="#9aabf2"/><g transform="translate(1223.6,465.11) scale(1.431) rotate(0)"><path fill-rule="evenodd" clip-rule="evenodd" d="M10 20C15.5228 20 20 15.5228 20 10C20 4.47715 15.5228 0 10 0C4.47715 0 0 4.47715 0 10C0 15.5228 4.47715 20 10 20ZM10 17C13.866 17 17 13.866 17 10C17 6.13401 13.866 3 10 3C6.13401 3 3 6.13401 3 10C3 13.866 6.13401 17 10 17Z" fill="#3759e5"/></g><g transform="translate(1252.22,465.11) scale(1.431) rotate(0)"><path fill-rule="evenodd" clip-rule="evenodd" d="M10 20C15.5228 20 20 15.5228 20 10C20 4.47715 15.5228 0 10 0C4.47715 0 0 4.47715 0 10C0 15.5228 4.47715 20 10 20ZM10 17C13.866 17 17 13.866 17 10C17 6.13401 13.866 3 10 3C6.13401 3 3 6.13401 3 10C3 13.866 6.13401 17 10 17Z" fill="#3355e5"/></g><g transform="translate(7.16,508.04) scale(2.862) rotate(0)"><path fill-rule="evenodd" clip-rule="evenodd" d="M10 20C15.5228 20 20 15.5228 20 10C20 4.47715 15.5228 0 10 0C4.47715 0 0 4.47715 0 10C0 15.5228 4.47715 20 10 20ZM10 17C13.866 17 17 13.866 17 10C17 6.13401 13.866 3 10 3C6.13401 3 3 6.13401 3 10C3 13.866 6.13401 17 10 17Z" fill="#4c6be8"/></g><rect x="78.71111111111111" y="508.0444444444445" width="57.24444444444445" height="57.24444444444445" fill="#ffffff"/><polygon points="107.33,508.04 107.33,536.66 78.71,536.66" fill="#ff3666"/><g transform="translate(107.33,508.04) scale(1.431) rotate(0)"><path d="M10 0L20 10L10 20L0 10L10 0Z" fill="#ff7596"/></g><polygon points="78.71,536.67 107.33,536.67 78.71,565.29" fill="#ffe6ec"/><polygon points="107.33,536.67 135.95,565.29 107.33,565.29" fill="#ff4672"/><g transform="translate(221.82,508.04) scale(2.862) rotate(0)"><path fill-rule="evenodd" clip-rule="evenodd" d="M10 20C15.5228 20 20 15.5228 20 10C20 4.47715 15.5228 0 10 0C4.47715 0 0 4.47715 0 10C0 15.5228 4.47715 20 10 20ZM10 17C13.866 17 17 13.866 17 10C17 6.13401 13.866 3 10 3C6.13401 3 3 6.13401 3 10C3 13.866 6.13401 17 10 17Z" fill="#a5b5f3"/></g><g transform="translate(293.38,508.04) scale(2.862) rotate(0)"><path d="M10 0L20 10L10 20L0 10L10 0Z" fill="#627ceb"/></g><polygon points="422.17,508.04 422.17,565.28 364.93,565.28" fill="#ffbacb"/><rect x="436.48888888888894" y="508.0444444444445" width="57.24444444444445" height="57.24444444444445" fill="#ffffff"/><g transform="translate(436.49,508.04) scale(1.431) rotate(0)"><path d="M10 0L20 10L10 20L0 10L10 0Z" fill="#cbd4f8"/></g><g transform="translate(465.11,508.04) scale(1.431) rotate(0)"><path d="M10 0L20 10L10 20L0 10L10 0Z" fill="#6c85ec"/></g><g transform="translate(436.49,536.67) scale(1.431) rotate(0)"><path fill-rule="evenodd" clip-rule="evenodd" d="M10 20C15.5228 20 20 15.5228 20 10C20 4.47715 15.5228 0 10 0C4.47715 0 0 4.47715 0 10C0 15.5228 4.47715 20 10 20ZM10 17C13.866 17 17 13.866 17 10C17 6.13401 13.866 3 10 3C6.13401 3 3 6.13401 3 10C3 13.866 6.13401 17 10 17Z" fill="#5773e9"/></g><g transform="translate(465.11,536.67) scale(1.431) rotate(0)"><path fill-rule="evenodd" clip-rule="evenodd" d="M10 20C15.5228 20 20 15.5228 20 10C20 4.47715 15.5228 0 10 0C4.47715 0 0 4.47715 0 10C0 15.5228 4.47715 20 10 20ZM10 17C13.866 17 17 13.866 17 10C17 6.13401 13.866 3 10 3C6.13401 3 3 6.13401 3 10C3 13.866 6.13401 17 10 17Z" fill="#f2f4fd"/></g><rect x="508.0444444444445" y="508.0444444444445" width="57.24444444444445" height="57.24444444444445" fill="#ffffff"/><polygon points="536.66,508.04 536.66,536.66 508.04,536.66" fill="#a6b5f3"/><g transform="translate(536.67,508.04) scale(1.431) rotate(0)"><path d="M10 0L20 10L10 20L0 10L10 0Z" fill="#ffcbd8"/></g><g transform="translate(508.04,536.67) scale(1.431) rotate(0)"><path d="M10 0L20 10L10 20L0 10L10 0Z" fill="#ffb1c4"/></g><polygon points="565.29,536.67 565.29,565.29 536.67,565.29" fill="#ff406e"/><g transform="translate(579.6,508.04) scale(2.862) rotate(0)"><path d="M10 0L20 10L10 20L0 10L10 0Z" fill="#ff4974"/></g><rect x="651.1555555555556" y="508.0444444444445" width="57.24444444444445" height="57.24444444444445" fill="#ffffff"/><g transform="translate(651.16,508.04) scale(1.431) rotate(0)"><path d="M10 0L20 10L10 20L0 10L10 0Z" fill="#ff8aa6"/></g><g transform="translate(679.78,508.04) scale(1.431) rotate(0)"><path d="M10 0L20 10L10 20L0 10L10 0Z" fill="#ff9cb3"/></g><g transform="translate(651.16,536.67) scale(1.431) rotate(0)"><path d="M10 0L20 10L10 20L0 10L10 0Z" fill="#adbbf4"/></g><polygon points="708.4,536.67 708.4,565.29 679.78,565.29" fill="#ff4f79"/><polygon points="722.71,508.04 779.95,508.04 722.71,565.28" fill="#fcfdff"/><polygon points="851.51,508.04 851.51,565.28 794.27,565.28" fill="#ff9ab2"/><rect x="865.8222222222223" y="508.0444444444445" width="57.24444444444445" height="57.24444444444445" fill="#ffffff"/><polygon points="894.44,508.04 894.44,536.66 865.82,536.66" fill="#ff547d"/><polygon points="894.44,508.04 923.0600000000001,508.04 894.44,536.66" fill="#ff587f"/><polygon points="865.82,536.67 894.44,565.29 865.82,565.29" fill="#c1cbf7"/><g transform="translate(894.44,536.67) scale(1.431) rotate(0)"><path fill-rule="evenodd" clip-rule="evenodd" d="M10 20C15.5228 20 20 15.5228 20 10C20 4.47715 15.5228 0 10 0C4.47715 0 0 4.47715 0 10C0 15.5228 4.47715 20 10 20ZM10 17C13.866 17 17 13.866 17 10C17 6.13401 13.866 3 10 3C6.13401 3 3 6.13401 3 10C3 13.866 6.13401 17 10 17Z" fill="#ffdde5"/></g><polygon points="937.38,508.04 994.62,508.04 937.38,565.28" fill="#506de8"/><rect x="1008.9333333333334" y="508.0444444444445" width="57.24444444444445" height="57.24444444444445" fill="#ffffff"/><polygon points="1037.55,508.04 1037.55,536.66 1008.93,536.66" fill="#fff2f5"/><g transform="translate(1037.56,508.04) scale(1.431) rotate(0)"><path fill-rule="evenodd" clip-rule="evenodd" d="M10 20C15.5228 20 20 15.5228 20 10C20 4.47715 15.5228 0 10 0C4.47715 0 0 4.47715 0 10C0 15.5228 4.47715 20 10 20ZM10 17C13.866 17 17 13.866 17 10C17 6.13401 13.866 3 10 3C6.13401 3 3 6.13401 3 10C3 13.866 6.13401 17 10 17Z" fill="#ff9ab2"/></g><g transform="translate(1008.93,536.67) scale(1.431) rotate(0)"><path d="M10 0L20 10L10 20L0 10L10 0Z" fill="#ff5a81"/></g><g transform="translate(1037.56,536.67) scale(1.431) rotate(0)"><path d="M10 0L20 10L10 20L0 10L10 0Z" fill="#8b9ef0"/></g><rect x="1080.4888888888888" y="508.0444444444445" width="57.24444444444445" height="57.24444444444445" fill="#ffffff"/><g transform="translate(1080.49,508.04) scale(1.431) rotate(0)"><path d="M10 0L20 10L10 20L0 10L10 0Z" fill="#ffd6e0"/></g><polygon points="1109.11,508.04 1137.7299999999998,508.04 1137.7299999999998,536.66" fill="#ffadc1"/><polygon points="1080.49,536.67 1109.11,565.29 1080.49,565.29" fill="#3053e4"/><g transform="translate(1109.11,536.67) scale(1.431) rotate(0)"><path d="M10 0L20 10L10 20L0 10L10 0Z" fill="#dae0fa"/></g><g transform="translate(1152.04,508.04) scale(2.862) rotate(0)"><path d="M10 0L20 10L10 20L0 10L10 0Z" fill="#ff84a2"/></g><g transform="translate(7.16,579.6) scale(2.862) rotate(0)"><path fill-rule="evenodd" clip-rule="evenodd" d="M10 20C15.5228 20 20 15.5228 20 10C20 4.47715 15.5228 0 10 0C4.47715 0 0 4.47715 0 10C0 15.5228 4.47715 20 10 20ZM10 17C13.866 17 17 13.866 17 10C17 6.13401 13.866 3 10 3C6.13401 3 3 6.13401 3 10C3 13.866 6.13401 17 10 17Z" fill="#7c92ee"/></g><rect x="78.71111111111111" y="579.6" width="57.24444444444445" height="57.24444444444445" fill="#ffffff"/><g transform="translate(78.71,579.6) scale(1.431) rotate(0)"><path d="M10 0L20 10L10 20L0 10L10 0Z" fill="#6982ec"/></g><g transform="translate(107.33,579.6) scale(1.431) rotate(0)"><path fill-rule="evenodd" clip-rule="evenodd" d="M10 20C15.5228 20 20 15.5228 20 10C20 4.47715 15.5228 0 10 0C4.47715 0 0 4.47715 0 10C0 15.5228 4.47715 20 10 20ZM10 17C13.866 17 17 13.866 17 10C17 6.13401 13.866 3 10 3C6.13401 3 3 6.13401 3 10C3 13.866 6.13401 17 10 17Z" fill="#ff90aa"/></g><polygon points="78.71,608.22 107.33,636.84 78.71,636.84" fill="#ff7898"/><g transform="translate(107.33,608.22) scale(1.431) rotate(0)"><path d="M10 0L20 10L10 20L0 10L10 0Z" fill="#ff4974"/></g><rect x="150.26666666666668" y="579.6" width="57.24444444444445" height="57.24444444444445" fill="#ffffff"/><g transform="translate(150.27,579.6) scale(1.431) rotate(0)"><path d="M10 0L20 10L10 20L0 10L10 0Z" fill="#7c92ee"/></g><polygon points="178.89,579.6 207.51,608.22 178.89,608.22" fill="#ff8da8"/><g transform="translate(150.27,608.22) scale(1.431) rotate(0)"><path fill-rule="evenodd" clip-rule="evenodd" d="M10 20C15.5228 20 20 15.5228 20 10C20 4.47715 15.5228 0 10 0C4.47715 0 0 4.47715 0 10C0 15.5228 4.47715 20 10 20ZM10 17C13.866 17 17 13.866 17 10C17 6.13401 13.866 3 10 3C6.13401 3 3 6.13401 3 10C3 13.866 6.13401 17 10 17Z" fill="#fff3f6"/></g><g transform="translate(178.89,608.22) scale(1.431) rotate(0)"><path fill-rule="evenodd" clip-rule="evenodd" d="M10 20C15.5228 20 20 15.5228 20 10C20 4.47715 15.5228 0 10 0C4.47715 0 0 4.47715 0 10C0 15.5228 4.47715 20 10 20ZM10 17C13.866 17 17 13.866 17 10C17 6.13401 13.866 3 10 3C6.13401 3 3 6.13401 3 10C3 13.866 6.13401 17 10 17Z" fill="#879bef"/></g><g transform="translate(221.82,579.6) scale(2.862) rotate(0)"><path fill-rule="evenodd" clip-rule="evenodd" d="M10 20C15.5228 20 20 15.5228 20 10C20 4.47715 15.5228 0 10 0C4.47715 0 0 4.47715 0 10C0 15.5228 4.47715 20 10 20ZM10 17C13.866 17 17 13.866 17 10C17 6.13401 13.866 3 10 3C6.13401 3 3 6.13401 3 10C3 13.866 6.13401 17 10 17Z" fill="#778eed"/></g><g transform="translate(293.38,579.6) scale(2.862) rotate(0)"><path d="M10 0L20 10L10 20L0 10L10 0Z" fill="#ff3e6c"/></g><rect x="364.93333333333334" y="579.6" width="57.24444444444445" height="57.24444444444445" fill="#ffffff"/><g transform="translate(364.93,579.6) scale(1.431) rotate(0)"><path d="M10 0L20 10L10 20L0 10L10 0Z" fill="#8196ef"/></g><polygon points="393.56,579.6 422.18,579.6 393.56,608.22" fill="#a0b0f3"/><polygon points="364.93,608.22 393.55,608.22 393.55,636.84" fill="#fff5f7"/><polygon points="393.56,608.22 422.18,608.22 422.18,636.84" fill="#9eaef2"/><rect x="436.48888888888894" y="579.6" width="57.24444444444445" height="57.24444444444445" fill="#ffffff"/><g transform="translate(436.49,579.6) scale(1.431) rotate(0)"><path fill-rule="evenodd" clip-rule="evenodd" d="M10 20C15.5228 20 20 15.5228 20 10C20 4.47715 15.5228 0 10 0C4.47715 0 0 4.47715 0 10C0 15.5228 4.47715 20 10 20ZM10 17C13.866 17 17 13.866 17 10C17 6.13401 13.866 3 10 3C6.13401 3 3 6.13401 3 10C3 13.866 6.13401 17 10 17Z" fill="#6a83ec"/></g><g transform="translate(465.11,579.6) scale(1.431) rotate(0)"><path fill-rule="evenodd" clip-rule="evenodd" d="M10 20C15.5228 20 20 15.5228 20 10C20 4.47715 15.5228 0 10 0C4.47715 0 0 4.47715 0 10C0 15.5228 4.47715 20 10 20ZM10 17C13.866 17 17 13.866 17 10C17 6.13401 13.866 3 10 3C6.13401 3 3 6.13401 3 10C3 13.866 6.13401 17 10 17Z" fill="#ffabbf"/></g><g transform="translate(436.49,608.22) scale(1.431) rotate(0)"><path fill-rule="evenodd" clip-rule="evenodd" d="M10 20C15.5228 20 20 15.5228 20 10C20 4.47715 15.5228 0 10 0C4.47715 0 0 4.47715 0 10C0 15.5228 4.47715 20 10 20ZM10 17C13.866 17 17 13.866 17 10C17 6.13401 13.866 3 10 3C6.13401 3 3 6.13401 3 10C3 13.866 6.13401 17 10 17Z" fill="#ff4e78"/></g><polygon points="465.11,608.22 493.73,608.22 493.73,636.84" fill="#5471e9"/><g transform="translate(508.04,579.6) scale(2.862) rotate(0)"><path fill-rule="evenodd" clip-rule="evenodd" d="M10 20C15.5228 20 20 15.5228 20 10C20 4.47715 15.5228 0 10 0C4.47715 0 0 4.47715 0 10C0 15.5228 4.47715 20 10 20ZM10 17C13.866 17 17 13.866 17 10C17 6.13401 13.866 3 10 3C6.13401 3 3 6.13401 3 10C3 13.866 6.13401 17 10 17Z" fill="#bec9f7"/></g><rect x="579.6" y="579.6" width="57.24444444444445" height="57.24444444444445" fill="#ffffff"/><g transform="translate(579.6,579.6) scale(1.431) rotate(0)"><path fill-rule="evenodd" clip-rule="evenodd" d="M10 20C15.5228 20 20 15.5228 20 10C20 4.47715 15.5228 0 10 0C4.47715 0 0 4.47715 0 10C0 15.5228 4.47715 20 10 20ZM10 17C13.866 17 17 13.866 17 10C17 6.13401 13.866 3 10 3C6.13401 3 3 6.13401 3 10C3 13.866 6.13401 17 10 17Z" fill="#3b5ce6"/></g><g transform="translate(608.22,579.6) scale(1.431) rotate(0)"><path d="M10 0L20 10L10 20L0 10L10 0Z" fill="#ff7395"/></g><g transform="translate(579.6,608.22) scale(1.431) rotate(0)"><path fill-rule="evenodd" clip-rule="evenodd" d="M10 20C15.5228 20 20 15.5228 20 10C20 4.47715 15.5228 0 10 0C4.47715 0 0 4.47715 0 10C0 15.5228 4.47715 20 10 20ZM10 17C13.866 17 17 13.866 17 10C17 6.13401 13.866 3 10 3C6.13401 3 3 6.13401 3 10C3 13.866 6.13401 17 10 17Z" fill="#ffd2dd"/></g><g transform="translate(608.22,608.22) scale(1.431) rotate(0)"><path fill-rule="evenodd" clip-rule="evenodd" d="M10 20C15.5228 20 20 15.5228 20 10C20 4.47715 15.5228 0 10 0C4.47715 0 0 4.47715 0 10C0 15.5228 4.47715 20 10 20ZM10 17C13.866 17 17 13.866 17 10C17 6.13401 13.866 3 10 3C6.13401 3 3 6.13401 3 10C3 13.866 6.13401 17 10 17Z" fill="#f5f6fe"/></g><g transform="translate(651.16,579.6) scale(2.862) rotate(0)"><path d="M10 0L20 10L10 20L0 10L10 0Z" fill="#ff5880"/></g><g transform="translate(722.71,579.6) scale(2.862) rotate(0)"><path d="M10 0L20 10L10 20L0 10L10 0Z" fill="#ff86a3"/></g><rect x="794.2666666666667" y="579.6" width="57.24444444444445" height="57.24444444444445" fill="#ffffff"/><polygon points="794.27,579.6 822.89,608.22 794.27,608.22" fill="#768ded"/><g transform="translate(822.89,579.6) scale(1.431) rotate(0)"><path d="M10 0L20 10L10 20L0 10L10 0Z" fill="#ff809e"/></g><g transform="translate(794.27,608.22) scale(1.431) rotate(0)"><path d="M10 0L20 10L10 20L0 10L10 0Z" fill="#ffe9ee"/></g><g transform="translate(822.89,608.22) scale(1.431) rotate(0)"><path fill-rule="evenodd" clip-rule="evenodd" d="M10 20C15.5228 20 20 15.5228 20 10C20 4.47715 15.5228 0 10 0C4.47715 0 0 4.47715 0 10C0 15.5228 4.47715 20 10 20ZM10 17C13.866 17 17 13.866 17 10C17 6.13401 13.866 3 10 3C6.13401 3 3 6.13401 3 10C3 13.866 6.13401 17 10 17Z" fill="#2348e2"/></g><rect x="865.8222222222223" y="579.6" width="57.24444444444445" height="57.24444444444445" fill="#ffffff"/><g transform="translate(865.82,579.6) scale(1.431) rotate(0)"><path fill-rule="evenodd" clip-rule="evenodd" d="M10 20C15.5228 20 20 15.5228 20 10C20 4.47715 15.5228 0 10 0C4.47715 0 0 4.47715 0 10C0 15.5228 4.47715 20 10 20ZM10 17C13.866 17 17 13.866 17 10C17 6.13401 13.866 3 10 3C6.13401 3 3 6.13401 3 10C3 13.866 6.13401 17 10 17Z" fill="#788fee"/></g><polygon points="894.44,579.6 923.0600000000001,608.22 894.44,608.22" fill="#dfe5fb"/><polygon points="865.82,608.22 894.44,636.84 865.82,636.84" fill="#6b84ec"/><g transform="translate(894.44,608.22) scale(1.431) rotate(0)"><path d="M10 0L20 10L10 20L0 10L10 0Z" fill="#dee3fb"/></g><g transform="translate(937.38,579.6) scale(2.862) rotate(0)"><path fill-rule="evenodd" clip-rule="evenodd" d="M10 20C15.5228 20 20 15.5228 20 10C20 4.47715 15.5228 0 10 0C4.47715 0 0 4.47715 0 10C0 15.5228 4.47715 20 10 20ZM10 17C13.866 17 17 13.866 17 10C17 6.13401 13.866 3 10 3C6.13401 3 3 6.13401 3 10C3 13.866 6.13401 17 10 17Z" fill="#d2d9f9"/></g><rect x="1008.9333333333334" y="579.6" width="57.24444444444445" height="57.24444444444445" fill="#ffffff"/><polygon points="1008.93,579.6 1037.55,579.6 1008.93,608.22" fill="#adbbf4"/><g transform="translate(1037.56,579.6) scale(1.431) rotate(0)"><path fill-rule="evenodd" clip-rule="evenodd" d="M10 20C15.5228 20 20 15.5228 20 10C20 4.47715 15.5228 0 10 0C4.47715 0 0 4.47715 0 10C0 15.5228 4.47715 20 10 20ZM10 17C13.866 17 17 13.866 17 10C17 6.13401 13.866 3 10 3C6.13401 3 3 6.13401 3 10C3 13.866 6.13401 17 10 17Z" fill="#3658e5"/></g><polygon points="1008.93,608.22 1037.55,608.22 1037.55,636.84" fill="#e3e8fb"/><polygon points="1037.56,608.22 1066.1799999999998,608.22 1037.56,636.84" fill="#dce2fa"/><g transform="translate(1080.49,579.6) scale(2.862) rotate(0)"><path d="M10 0L20 10L10 20L0 10L10 0Z" fill="#ff5e85"/></g><g transform="translate(1152.04,579.6) scale(2.862) rotate(0)"><path fill-rule="evenodd" clip-rule="evenodd" d="M10 20C15.5228 20 20 15.5228 20 10C20 4.47715 15.5228 0 10 0C4.47715 0 0 4.47715 0 10C0 15.5228 4.47715 20 10 20ZM10 17C13.866 17 17 13.866 17 10C17 6.13401 13.866 3 10 3C6.13401 3 3 6.13401 3 10C3 13.866 6.13401 17 10 17Z" fill="#4e6ce8"/></g><g transform="translate(1223.6,579.6) scale(2.862) rotate(0)"><path fill-rule="evenodd" clip-rule="evenodd" d="M10 20C15.5228 20 20 15.5228 20 10C20 4.47715 15.5228 0 10 0C4.47715 0 0 4.47715 0 10C0 15.5228 4.47715 20 10 20ZM10 17C13.866 17 17 13.866 17 10C17 6.13401 13.866 3 10 3C6.13401 3 3 6.13401 3 10C3 13.866 6.13401 17 10 17Z" fill="#ffb7c8"/></g></g></svg>